<svg width="13" height="23" viewBox="0 0 13 23" fill="none" xmlns="http://www.w3.org/2000/svg">
<path d="M10.3553 21.8912L0.587387 12.1523C0.471448 12.0363 0.389518 11.9107 0.341596 11.7755C0.292902 11.6402 0.268555 11.4953 0.268555 11.3407C0.268555 11.1861 0.292902 11.0412 0.341596 10.9059C0.389518 10.7707 0.471448 10.6451 0.587387 10.5291L10.3553 0.761256C10.6258 0.490731 10.9639 0.355469 11.3697 0.355469C11.7755 0.355469 12.1233 0.500393 12.4132 0.790241C12.703 1.08009 12.848 1.41824 12.848 1.80471C12.848 2.19117 12.703 2.52933 12.4132 2.81918L3.89165 11.3407L12.4132 19.8622C12.6837 20.1328 12.819 20.4659 12.819 20.8616C12.819 21.2581 12.674 21.6013 12.3842 21.8912C12.0944 22.181 11.7562 22.3259 11.3697 22.3259C10.9833 22.3259 10.6451 22.181 10.3553 21.8912Z" fill="#F5F5F5"/>
</svg>
