<svg width="21" height="19" viewBox="0 0 21 19" fill="none" xmlns="http://www.w3.org/2000/svg">
<path d="M20.7659 9.70053C20.7659 8.43702 19.7588 7.41157 18.518 7.41157C17.9065 7.41157 17.367 7.64962 16.9714 8.05248C15.4428 6.93547 13.3208 6.203 10.9829 6.11144L12.008 1.22223L15.3349 1.93638C15.3709 2.79703 16.0722 3.49288 16.9354 3.49288C17.8166 3.49288 18.536 2.76041 18.536 1.86314C18.536 0.965867 17.8166 0.233398 16.9354 0.233398C16.306 0.233398 15.7665 0.599632 15.5147 1.14898L11.7922 0.34327C11.6843 0.324958 11.5764 0.343269 11.4865 0.398204C11.3965 0.453139 11.3426 0.544697 11.3066 0.654567L10.1737 6.11144C7.78188 6.18469 5.64185 6.89884 4.09528 8.05248C3.69964 7.66793 3.14216 7.41157 2.54871 7.41157C1.30785 7.41157 0.300781 8.43702 0.300781 9.70053C0.300781 10.6344 0.840284 11.4218 1.63155 11.7881C1.59559 12.0078 1.5776 12.2459 1.5776 12.4839C1.5776 15.9997 5.5879 18.8381 10.5513 18.8381C15.5147 18.8381 19.525 15.9997 19.525 12.4839C19.525 12.2459 19.5071 12.0261 19.4711 11.8064C20.2084 11.4401 20.7659 10.6344 20.7659 9.70053ZM5.39008 11.3303C5.39008 10.433 6.10942 9.70053 6.99061 9.70053C7.8718 9.70053 8.59113 10.433 8.59113 11.3303C8.59113 12.2275 7.8718 12.96 6.99061 12.96C6.10942 12.96 5.39008 12.2275 5.39008 11.3303ZM14.3278 15.6335C13.2309 16.7505 11.1448 16.8238 10.5333 16.8238C9.9219 16.8238 7.81784 16.7322 6.73884 15.6335C6.57699 15.4687 6.57699 15.194 6.73884 15.0292C6.90069 14.8644 7.17044 14.8644 7.33229 15.0292C8.01566 15.7251 9.4903 15.9814 10.5513 15.9814C11.6123 15.9814 13.069 15.7251 13.7704 15.0292C13.9322 14.8644 14.202 14.8644 14.3638 15.0292C14.4897 15.2123 14.4897 15.4687 14.3278 15.6335ZM14.0401 12.96C13.1589 12.96 12.4396 12.2275 12.4396 11.3303C12.4396 10.433 13.1589 9.70053 14.0401 9.70053C14.9213 9.70053 15.6406 10.433 15.6406 11.3303C15.6406 12.2275 14.9213 12.96 14.0401 12.96Z" fill="white"/>
</svg>
