<svg width="19" height="16" viewBox="0 0 19 16" fill="none" xmlns="http://www.w3.org/2000/svg">
<path d="M16.1139 2.051C14.9281 1.50691 13.6565 1.10604 12.327 0.876451C12.3028 0.87202 12.2786 0.883094 12.2661 0.905241C12.1026 1.19611 11.9214 1.57556 11.7946 1.87381C10.3646 1.65973 8.94192 1.65973 7.54125 1.87381C7.41437 1.56893 7.22665 1.19611 7.06238 0.905241C7.04991 0.883833 7.02572 0.872759 7.00151 0.876451C5.67272 1.10531 4.40113 1.50617 3.2146 2.051C3.20432 2.05543 3.19552 2.06282 3.18968 2.07241C0.77774 5.67579 0.11701 9.1906 0.441142 12.6618C0.442608 12.6788 0.452141 12.6951 0.465342 12.7054C2.05667 13.874 3.59814 14.5835 5.11099 15.0537C5.1352 15.0611 5.16085 15.0523 5.17626 15.0323C5.53412 14.5436 5.85313 14.0283 6.12664 13.4864C6.14278 13.4547 6.12738 13.4171 6.09439 13.4045C5.58839 13.2126 5.10658 12.9785 4.64312 12.7128C4.60646 12.6914 4.60352 12.6389 4.63725 12.6138C4.73478 12.5407 4.83234 12.4647 4.92546 12.3879C4.94231 12.3739 4.96579 12.371 4.9856 12.3798C8.03037 13.7699 11.3267 13.7699 14.3355 12.3798C14.3554 12.3702 14.3788 12.3732 14.3964 12.3872C14.4896 12.464 14.5871 12.5407 14.6854 12.6138C14.7191 12.6389 14.7169 12.6914 14.6802 12.7128C14.2168 12.9837 13.735 13.2126 13.2282 13.4038C13.1952 13.4163 13.1806 13.4547 13.1967 13.4864C13.4761 14.0276 13.7951 14.5429 14.1463 15.0316C14.161 15.0523 14.1874 15.0611 14.2116 15.0537C15.7318 14.5835 17.2733 13.874 18.8646 12.7054C18.8785 12.6951 18.8873 12.6796 18.8888 12.6626C19.2767 8.64944 18.2391 5.16346 16.1381 2.07314C16.1329 2.06282 16.1242 2.05543 16.1139 2.051ZM6.58133 10.5482C5.66465 10.5482 4.90932 9.70663 4.90932 8.67308C4.90932 7.63952 5.65 6.79794 6.58133 6.79794C7.51997 6.79794 8.26799 7.64691 8.25331 8.67308C8.25331 9.70663 7.51264 10.5482 6.58133 10.5482ZM12.7633 10.5482C11.8466 10.5482 11.0913 9.70663 11.0913 8.67308C11.0913 7.63952 11.832 6.79794 12.7633 6.79794C13.702 6.79794 14.4499 7.64691 14.4353 8.67308C14.4353 9.70663 13.702 10.5482 12.7633 10.5482Z" fill="white"/>
</svg>
