<svg width="15" height="16" viewBox="0 0 15 16" fill="none" xmlns="http://www.w3.org/2000/svg">
<path d="M14.0403 15.7H11.1032H10.9437V15.5405V9.17568C10.9437 8.83353 10.8978 8.54692 10.7544 8.35535C10.6169 8.17151 10.3754 8.06417 9.97557 8.06417C8.68147 8.06417 8.35786 9.04511 8.31615 9.19408V15.5405V15.7L8.15667 15.7H5.22003H5.06055V15.5405V5.23809V5.07861H5.22003H8.15667H8.31615V5.23809V5.91949C8.53397 5.778 8.82346 5.6139 9.17637 5.46896C9.69252 5.257 10.3436 5.0859 11.1032 5.0859C11.7091 5.0859 12.706 5.30208 13.4076 6.26138C13.8686 6.89174 14.1998 7.84213 14.1998 9.26168V15.5405V15.7H14.0404L14.0403 15.7Z" fill="white"/>
<path d="M1.82407 3.79264C1.39937 3.79264 1.01426 3.61966 0.735378 3.33929C0.457268 3.05972 0.285156 2.67371 0.285156 2.24644C0.285156 1.82166 0.457551 1.43696 0.736038 1.15847C1.01462 0.87989 1.39943 0.70752 1.82407 0.70752L1.82532 0.708143C2.25016 0.712217 2.63444 0.886095 2.91216 1.16382C3.19066 1.44233 3.36297 1.82523 3.36297 2.24644C3.36297 2.67378 3.19094 3.05983 2.91283 3.33942C2.63402 3.61971 2.24897 3.79264 1.82408 3.79264L1.82407 3.79264Z" fill="white"/>
<path d="M3.30622 15.7H0.359681H0.200195V15.5405V5.23809V5.07861H0.359681H3.30622H3.4657V5.23809V15.5405V15.7H3.30622Z" fill="white"/>
</svg>
