<svg width="21" height="21" viewBox="0 0 21 21" fill="none" xmlns="http://www.w3.org/2000/svg">
<path d="M10.5518 5.64104L11.3018 4.88323C11.9567 4.2863 12.8164 3.96467 13.7024 3.98518C14.5883 4.00569 15.4322 4.36676 16.0588 4.99336C16.6854 5.61997 17.0465 6.46391 17.067 7.34982C17.0875 8.23574 16.7659 9.09549 16.1689 9.75042L13.8018 12.1098C13.4831 12.4296 13.1045 12.6834 12.6875 12.8566C12.2706 13.0297 11.8235 13.1189 11.3721 13.1189C10.9206 13.1189 10.4736 13.0297 10.0566 12.8566C9.63968 12.6834 9.26102 12.4296 8.94238 12.1098" stroke="white" stroke-width="1.875" stroke-linecap="round" stroke-linejoin="round"/>
<path d="M9.8482 16.0629L9.0982 16.8207C8.44327 17.4177 7.58352 17.7393 6.6976 17.7188C5.81169 17.6983 4.96774 17.3372 4.34114 16.7106C3.71454 16.084 3.35347 15.24 3.33296 14.3541C3.31245 13.4682 3.63408 12.6085 4.23101 11.9535L6.5982 9.59416C6.91684 9.27432 7.29549 9.02054 7.71244 8.84738C8.12938 8.67422 8.57641 8.58508 9.02789 8.58508C9.47936 8.58508 9.92639 8.67422 10.3433 8.84738C10.7603 9.02054 11.1389 9.27432 11.4576 9.59416" stroke="white" stroke-width="1.875" stroke-linecap="round" stroke-linejoin="round"/>
</svg>
