<svg width="12" height="12" viewBox="0 0 12 12" fill="none" xmlns="http://www.w3.org/2000/svg">
<path d="M1.90379 4.35676C1.93216 4.28823 1.98021 4.22965 2.04187 4.18843C2.10353 4.14722 2.17603 4.12521 2.25019 4.12519L9.75019 4.12519C9.8244 4.12513 9.89696 4.1471 9.95869 4.1883C10.0204 4.2295 10.0685 4.28809 10.0969 4.35665C10.1253 4.42521 10.1328 4.50065 10.1183 4.57343C10.1038 4.64621 10.068 4.71306 10.0155 4.76551L6.26551 8.51551C6.23068 8.55037 6.18932 8.57803 6.1438 8.5969C6.09827 8.61577 6.04947 8.62549 6.00019 8.62549C5.95091 8.62549 5.90211 8.61577 5.85659 8.5969C5.81107 8.57803 5.76971 8.55037 5.73488 8.51551L1.98488 4.76551C1.93245 4.71303 1.89676 4.64619 1.88233 4.57343C1.86789 4.50067 1.87536 4.42527 1.90379 4.35676Z" fill="white"/>
</svg>
