<svg width="20" height="20" viewBox="0 0 20 20" fill="none" xmlns="http://www.w3.org/2000/svg">
<path d="M10 1.875C8.39303 1.875 6.82214 2.35152 5.486 3.24431C4.14985 4.1371 3.10844 5.40605 2.49348 6.8907C1.87852 8.37535 1.71762 10.009 2.03112 11.5851C2.34463 13.1612 3.11846 14.6089 4.25476 15.7452C5.39106 16.8815 6.8388 17.6554 8.4149 17.9689C9.99099 18.2824 11.6247 18.1215 13.1093 17.5065C14.594 16.8916 15.8629 15.8502 16.7557 14.514C17.6485 13.1779 18.125 11.607 18.125 10C18.1209 7.84638 17.2635 5.78216 15.7407 4.25932C14.2178 2.73648 12.1536 1.87913 10 1.875ZM12.9453 12.0547C13.0627 12.1732 13.1285 12.3332 13.1285 12.5C13.1285 12.6668 13.0627 12.8268 12.9453 12.9453C12.8259 13.0608 12.6662 13.1254 12.5 13.1254C12.3338 13.1254 12.1742 13.0608 12.0547 12.9453L10 10.8828L7.94532 12.9453C7.82585 13.0608 7.66618 13.1254 7.5 13.1254C7.33383 13.1254 7.17415 13.0608 7.05469 12.9453C6.93733 12.8268 6.87149 12.6668 6.87149 12.5C6.87149 12.3332 6.93733 12.1732 7.05469 12.0547L9.11719 10L7.05469 7.94531C6.95503 7.82388 6.90409 7.66971 6.9118 7.51281C6.91951 7.3559 6.9853 7.20747 7.09639 7.09638C7.20747 6.9853 7.3559 6.9195 7.51281 6.9118C7.66972 6.90409 7.82388 6.95502 7.94532 7.05469L10 9.11719L12.0547 7.05469C12.1761 6.95502 12.3303 6.90409 12.4872 6.9118C12.6441 6.9195 12.7925 6.9853 12.9036 7.09638C13.0147 7.20747 13.0805 7.3559 13.0882 7.51281C13.0959 7.66971 13.045 7.82388 12.9453 7.94531L10.8828 10L12.9453 12.0547Z" fill="white" fill-opacity="0.8"/>
</svg>
