<svg width="108" height="20" viewBox="0 0 108 20" fill="none" xmlns="http://www.w3.org/2000/svg">
<path d="M18.3203 8.93578L14.7969 12.0108L15.8524 16.5889C15.9082 16.8282 15.8923 17.0787 15.8065 17.309C15.7208 17.5394 15.5691 17.7393 15.3703 17.8839C15.1716 18.0284 14.9346 18.1112 14.6891 18.1218C14.4436 18.1324 14.2004 18.0704 13.9899 17.9436L9.99689 15.5217L6.01252 17.9436C5.80202 18.0704 5.55881 18.1324 5.31328 18.1218C5.06775 18.1112 4.83079 18.0284 4.63204 17.8839C4.4333 17.7393 4.28157 17.5394 4.19584 17.309C4.1101 17.0787 4.09416 16.8282 4.15002 16.5889L5.20392 12.0155L1.6797 8.93578C1.49331 8.77502 1.35852 8.5628 1.29225 8.32574C1.22598 8.08868 1.23117 7.83733 1.30718 7.60321C1.38319 7.36909 1.52663 7.16262 1.71952 7.0097C1.9124 6.85678 2.14614 6.76421 2.39142 6.74359L7.03674 6.34125L8.85002 2.01625C8.94471 1.78931 9.10443 1.59546 9.30907 1.45911C9.51371 1.32276 9.75411 1.25 10 1.25C10.2459 1.25 10.4863 1.32276 10.691 1.45911C10.8956 1.59546 11.0553 1.78931 11.15 2.01625L12.9688 6.34125L17.6125 6.74359C17.8578 6.76421 18.0915 6.85678 18.2844 7.0097C18.4773 7.16262 18.6207 7.36909 18.6968 7.60321C18.7728 7.83733 18.778 8.08868 18.7117 8.32574C18.6454 8.5628 18.5106 8.77502 18.3242 8.93578H18.3203Z" fill="#EE7A30"/>
<path d="M40.3203 8.93578L36.7969 12.0108L37.8524 16.5889C37.9082 16.8282 37.8923 17.0787 37.8065 17.309C37.7208 17.5394 37.5691 17.7393 37.3703 17.8839C37.1716 18.0284 36.9346 18.1112 36.6891 18.1218C36.4436 18.1324 36.2004 18.0704 35.9899 17.9436L31.9969 15.5217L28.0125 17.9436C27.802 18.0704 27.5588 18.1324 27.3133 18.1218C27.0677 18.1112 26.8308 18.0284 26.632 17.8839C26.4333 17.7393 26.2816 17.5394 26.1958 17.309C26.1101 17.0787 26.0942 16.8282 26.15 16.5889L27.2039 12.0155L23.6797 8.93578C23.4933 8.77502 23.3585 8.5628 23.2922 8.32574C23.226 8.08868 23.2312 7.83733 23.3072 7.60321C23.3832 7.36909 23.5266 7.16262 23.7195 7.0097C23.9124 6.85678 24.1461 6.76421 24.3914 6.74359L29.0367 6.34125L30.85 2.01625C30.9447 1.78931 31.1044 1.59546 31.3091 1.45911C31.5137 1.32276 31.7541 1.25 32 1.25C32.2459 1.25 32.4863 1.32276 32.691 1.45911C32.8956 1.59546 33.0553 1.78931 33.15 2.01625L34.9688 6.34125L39.6125 6.74359C39.8578 6.76421 40.0915 6.85678 40.2844 7.0097C40.4773 7.16262 40.6207 7.36909 40.6968 7.60321C40.7728 7.83733 40.778 8.08868 40.7117 8.32574C40.6454 8.5628 40.5106 8.77502 40.3242 8.93578H40.3203Z" fill="#EE7A30"/>
<path d="M62.3203 8.93578L58.7969 12.0108L59.8524 16.5889C59.9082 16.8282 59.8923 17.0787 59.8065 17.309C59.7208 17.5394 59.5691 17.7393 59.3703 17.8839C59.1716 18.0284 58.9346 18.1112 58.6891 18.1218C58.4436 18.1324 58.2004 18.0704 57.9899 17.9436L53.9969 15.5217L50.0125 17.9436C49.802 18.0704 49.5588 18.1324 49.3133 18.1218C49.0677 18.1112 48.8308 18.0284 48.632 17.8839C48.4333 17.7393 48.2816 17.5394 48.1958 17.309C48.1101 17.0787 48.0942 16.8282 48.15 16.5889L49.2039 12.0155L45.6797 8.93578C45.4933 8.77502 45.3585 8.5628 45.2922 8.32574C45.226 8.08868 45.2312 7.83733 45.3072 7.60321C45.3832 7.36909 45.5266 7.16262 45.7195 7.0097C45.9124 6.85678 46.1461 6.76421 46.3914 6.74359L51.0367 6.34125L52.85 2.01625C52.9447 1.78931 53.1044 1.59546 53.3091 1.45911C53.5137 1.32276 53.7541 1.25 54 1.25C54.2459 1.25 54.4863 1.32276 54.691 1.45911C54.8956 1.59546 55.0553 1.78931 55.15 2.01625L56.9688 6.34125L61.6125 6.74359C61.8578 6.76421 62.0915 6.85678 62.2844 7.0097C62.4773 7.16262 62.6207 7.36909 62.6968 7.60321C62.7728 7.83733 62.778 8.08868 62.7117 8.32574C62.6454 8.5628 62.5106 8.77502 62.3242 8.93578H62.3203Z" fill="#EE7A30"/>
<path d="M84.3203 8.93578L80.7969 12.0108L81.8524 16.5889C81.9082 16.8282 81.8923 17.0787 81.8065 17.309C81.7208 17.5394 81.5691 17.7393 81.3703 17.8839C81.1716 18.0284 80.9346 18.1112 80.6891 18.1218C80.4436 18.1324 80.2004 18.0704 79.9899 17.9436L75.9969 15.5217L72.0125 17.9436C71.802 18.0704 71.5588 18.1324 71.3133 18.1218C71.0677 18.1112 70.8308 18.0284 70.632 17.8839C70.4333 17.7393 70.2816 17.5394 70.1958 17.309C70.1101 17.0787 70.0942 16.8282 70.15 16.5889L71.2039 12.0155L67.6797 8.93578C67.4933 8.77502 67.3585 8.5628 67.2922 8.32574C67.226 8.08868 67.2312 7.83733 67.3072 7.60321C67.3832 7.36909 67.5266 7.16262 67.7195 7.0097C67.9124 6.85678 68.1461 6.76421 68.3914 6.74359L73.0367 6.34125L74.85 2.01625C74.9447 1.78931 75.1044 1.59546 75.3091 1.45911C75.5137 1.32276 75.7541 1.25 76 1.25C76.2459 1.25 76.4863 1.32276 76.691 1.45911C76.8956 1.59546 77.0553 1.78931 77.15 2.01625L78.9688 6.34125L83.6125 6.74359C83.8578 6.76421 84.0915 6.85678 84.2844 7.0097C84.4773 7.16262 84.6207 7.36909 84.6968 7.60321C84.7728 7.83733 84.778 8.08868 84.7117 8.32574C84.6454 8.5628 84.5106 8.77502 84.3242 8.93578H84.3203Z" fill="#EE7A30"/>
<path d="M106.688 7.60063C106.612 7.36733 106.469 7.16146 106.277 7.00865C106.085 6.85584 105.853 6.76285 105.609 6.74125L100.969 6.34125L99.15 2.01625C99.0553 1.78931 98.8956 1.59546 98.691 1.45911C98.4863 1.32276 98.2459 1.25 98 1.25C97.7541 1.25 97.5137 1.32276 97.3091 1.45911C97.1044 1.59546 96.9447 1.78931 96.85 2.01625L95.0367 6.34125L90.3914 6.74359C90.1461 6.76421 89.9124 6.85678 89.7195 7.0097C89.5266 7.16262 89.3832 7.36909 89.3072 7.60321C89.2312 7.83733 89.226 8.08868 89.2922 8.32574C89.3585 8.5628 89.4933 8.77502 89.6797 8.93578L93.2039 12.0155L92.1477 16.5889C92.0918 16.8282 92.1078 17.0787 92.1935 17.309C92.2792 17.5394 92.431 17.7393 92.6297 17.8839C92.8284 18.0284 93.0654 18.1112 93.3109 18.1218C93.5565 18.1324 93.7997 18.0704 94.0102 17.9436L97.9945 15.5217L101.988 17.9436C102.198 18.0704 102.441 18.1324 102.687 18.1218C102.932 18.1112 103.169 18.0284 103.368 17.8839C103.567 17.7393 103.718 17.5394 103.804 17.309C103.89 17.0787 103.906 16.8282 103.85 16.5889L102.795 12.0108L106.318 8.93578C106.504 8.77446 106.639 8.56164 106.705 8.32408C106.77 8.08651 106.764 7.83481 106.688 7.60063ZM105.498 7.99125L101.975 11.0662C101.804 11.2154 101.676 11.4085 101.606 11.6248C101.536 11.841 101.526 12.0723 101.578 12.2936L102.637 16.8748L98.6469 14.453C98.4522 14.3344 98.2287 14.2717 98.0008 14.2717C97.7729 14.2717 97.5494 14.3344 97.3547 14.453L93.3703 16.8748L94.4219 12.2967C94.4736 12.0754 94.4639 11.8442 94.394 11.6279C94.3241 11.4116 94.1965 11.2185 94.025 11.0694L90.5 7.99594C90.4997 7.9936 90.4997 7.99124 90.5 7.98891L95.1438 7.58734C95.3705 7.56736 95.5874 7.48585 95.7712 7.35162C95.955 7.21738 96.0987 7.03551 96.1867 6.82563L98 2.50609L99.8125 6.82563C99.9005 7.03551 100.044 7.21738 100.228 7.35162C100.412 7.48585 100.629 7.56736 100.855 7.58734L105.5 7.98891C105.5 7.98891 105.5 7.99359 105.5 7.99438L105.498 7.99125Z" fill="#EE7A30"/>
<path d="M94.0125 17.9436L97.9969 15.5217L98 1.25C97.7541 1.25 97.5137 1.32276 97.3091 1.45911C97.1044 1.59546 96.9447 1.78931 96.85 2.01625L95.0367 6.34125L90.3914 6.74359C90.1461 6.76421 89.9124 6.85678 89.7195 7.0097C89.5266 7.16262 89.3832 7.36909 89.3072 7.60321C89.2312 7.83733 89.226 8.08868 89.2922 8.32574C89.3585 8.5628 89.4933 8.77502 89.6797 8.93578L93.2039 12.0155L92.15 16.5889C92.0942 16.8282 92.1101 17.0787 92.1958 17.309C92.2816 17.5394 92.4333 17.7393 92.632 17.8839C92.8308 18.0284 93.0677 18.1112 93.3133 18.1218C93.5588 18.1324 93.802 18.0704 94.0125 17.9436Z" fill="#EE7A30"/>
</svg>
