<svg width="139" height="26" viewBox="0 0 139 26" fill="none" xmlns="http://www.w3.org/2000/svg">
<g clip-path="url(#clip0_1501_10423)">
<path d="M39.042 18.3895C36.492 18.3895 34.9118 16.1172 34.9118 12.9734C34.9118 9.86077 36.2416 7.54182 39.0263 7.54182C40.8566 7.54182 42.0613 8.70908 42.2806 10.2498H46.536C46.3167 8.33554 45.4563 6.65473 43.9545 5.53417C42.7341 4.60035 41.0445 4.02454 39.042 4.02454C33.9105 4.02454 30.5781 7.88422 30.5781 12.9734C30.5781 18.0938 34.02 21.8445 39.0734 21.8445C41.4981 21.8445 43.2659 21.1753 44.5802 19.8991C45.7535 18.7786 46.536 17.2222 46.6452 15.5258H42.3899C42.2024 17.1911 40.9506 18.3895 39.042 18.3895Z" fill="white"/>
<path d="M54.4976 8.89575C50.5551 8.89575 47.9111 11.6972 47.9111 15.3857C47.9111 19.0742 50.5551 21.8756 54.4976 21.8756C58.4712 21.8756 61.0683 19.0742 61.0683 15.3857C61.0683 11.6972 58.4712 8.89575 54.4976 8.89575ZM54.4819 19.0897C52.7765 19.0897 51.8847 17.6112 51.8847 15.3857C51.8847 13.1601 52.7765 11.6505 54.4819 11.6505C56.1872 11.6505 57.1101 13.1601 57.1101 15.3857C57.0947 17.6112 56.1872 19.0897 54.4819 19.0897Z" fill="white"/>
<path d="M66.6355 7.59329C67.4724 6.76063 67.4724 5.41064 66.6355 4.57799C65.7981 3.74533 64.4413 3.74533 63.6043 4.57799C62.7673 5.41064 62.7673 6.76063 63.6043 7.59329C64.4413 8.42595 65.7981 8.42595 66.6355 7.59329Z" fill="white"/>
<path d="M61.71 11.9774H63.3525V21.4865H67.2639V9.22266H61.71V11.9774Z" fill="white"/>
<path d="M76.8873 8.86462C75.1823 8.86462 73.993 9.58053 73.0859 10.9034H73.0077V9.22259H69.2373V21.4709H73.1641V14.7009C73.1641 13.1912 74.0245 12.1174 75.3231 12.1174C76.6059 12.1174 77.2473 13.0044 77.2473 14.2962V21.4709H81.1741V13.5025C81.1741 10.7789 79.5784 8.86462 76.8873 8.86462Z" fill="white"/>
<path d="M90.3723 4.36694H83.0352V21.4711H90.1066C92.2656 21.4711 94.002 20.9263 95.3477 19.9147C97.272 18.4518 98.3356 16.0395 98.3356 13.0202C98.3356 7.79087 95.1284 4.36694 90.3723 4.36694ZM89.7938 17.9226H87.2905V7.91539H89.8406C92.5159 7.91539 94.0334 9.92304 94.0334 13.0357C94.0177 16.1639 92.5784 17.9226 89.7938 17.9226Z" fill="white"/>
<path d="M109.96 10.4833C108.896 9.53398 107.504 8.95813 105.751 8.95813C101.996 8.95813 99.4307 11.7595 99.4307 15.4169C99.4307 19.121 101.934 21.9224 106.002 21.9224C107.566 21.9224 108.817 21.5177 109.85 20.8018C110.93 20.0548 111.649 19.012 111.915 17.9071H108.098C107.754 18.6697 107.081 19.121 106.049 19.121C104.437 19.121 103.53 18.0938 103.279 16.4441H112.134C112.15 13.9384 111.43 11.8218 109.96 10.4833ZM103.295 14.1096C103.561 12.6466 104.327 11.7128 105.814 11.7128C107.081 11.7128 108.004 12.6466 108.145 14.1096H103.295Z" fill="white"/>
<path d="M119.861 13.8138C118.296 13.5337 116.904 13.4092 116.904 12.5532C116.904 11.7906 117.655 11.4326 118.609 11.4326C119.689 11.4326 120.44 11.775 120.581 12.8644H124.195C124.007 10.4521 122.13 8.9425 118.641 8.9425C115.731 8.9425 113.321 10.281 113.321 12.8644C113.321 15.7437 115.606 16.3039 117.749 16.6619C119.392 16.942 120.878 17.0666 120.878 18.1715C120.878 18.9653 120.127 19.3855 118.954 19.3855C117.655 19.3855 116.841 18.7941 116.685 17.5646H112.978C113.103 20.2726 115.355 21.9223 118.969 21.9223C122.192 21.9223 124.57 20.5372 124.57 17.8603C124.586 14.732 122.036 14.1718 119.861 13.8138Z" fill="white"/>
<path d="M133.802 13.8295L138.135 9.2227H133.614L129.953 13.3626V4.36694H126.089V21.4866H129.953V17.7203L131.142 16.4752L134.099 21.4866H138.636L133.802 13.8295Z" fill="white"/>
<path d="M13.3365 14.1096C13.9932 14.1096 14.5255 13.5801 14.5255 12.9268C14.5255 12.2736 13.9932 11.744 13.3365 11.744C12.6798 11.744 12.1475 12.2736 12.1475 12.9268C12.1475 13.5801 12.6798 14.1096 13.3365 14.1096Z" fill="#757575"/>
<path d="M22.8189 14.1096C23.4755 14.1096 24.0079 13.5801 24.0079 12.9268C24.0079 12.2736 23.4755 11.744 22.8189 11.744C22.1622 11.744 21.6299 12.2736 21.6299 12.9268C21.6299 13.5801 22.1622 14.1096 22.8189 14.1096Z" fill="#757575"/>
<path d="M22.8189 23.5565C23.4755 23.5565 24.0079 23.027 24.0079 22.3737C24.0079 21.7205 23.4755 21.1909 22.8189 21.1909C22.1622 21.1909 21.6299 21.7205 21.6299 22.3737C21.6299 23.027 22.1622 23.5565 22.8189 23.5565Z" fill="#757575"/>
<path d="M26.3061 3.26195C26.1809 1.53442 24.7886 0.133725 23.052 0.00921802C21.9412 -0.0685987 20.9399 0.35161 20.2359 1.06753C19.704 1.61224 18.9843 1.93907 18.2177 1.93907H17.9361C17.1539 1.93907 16.4186 1.61224 15.871 1.05196C15.2296 0.398299 14.3378 0.00921802 13.3522 0.00921802C12.3665 0.00921802 11.4748 0.413865 10.8334 1.05196C10.2858 1.61224 9.55049 1.93907 8.76824 1.93907H8.50227C7.7357 1.93907 7.00037 1.64337 6.46844 1.09865C6.35894 0.989709 6.2494 0.880766 6.1399 0.787384C4.81011 -0.286485 2.85449 -0.255359 1.57162 0.880766C0.0227781 2.23477 -0.0398012 4.60041 1.39952 6.03221C1.41517 6.04777 1.43081 6.06334 1.44646 6.0789C2.00967 6.60806 2.30692 7.35512 2.30692 8.11772V8.3823C2.30692 9.16046 1.97838 9.89193 1.41517 10.4366C0.758085 11.0748 0.366965 11.9618 0.366965 12.9423C0.366965 13.9228 0.773731 14.8099 1.41517 15.4481C1.97838 15.9928 2.30692 16.7242 2.30692 17.5024V17.8604C2.30692 18.623 1.97838 19.3389 1.43081 19.868C0.742442 20.5373 0.32003 21.4866 0.366965 22.5293C0.445189 24.3658 1.94709 25.8443 3.77754 25.9066C4.8414 25.9377 5.79572 25.5175 6.46844 24.8172C7.00037 24.2725 7.72002 23.9301 8.48663 23.9301H8.78388C9.55049 23.9301 10.2701 24.2569 10.8021 24.8172C11.5061 25.5486 12.523 25.9688 13.6338 25.891C15.3703 25.7665 16.7784 24.3658 16.9036 22.6227C17.0443 20.5528 15.4173 18.8408 13.3678 18.8408C12.3978 18.8408 11.5061 19.2299 10.8646 19.868C10.3171 20.4127 9.58178 20.7396 8.81517 20.7396H8.48663C7.72002 20.7396 6.96909 20.4439 6.42151 19.8836C6.40587 19.868 6.40587 19.868 6.39023 19.8525C5.82701 19.3077 5.49847 18.5763 5.49847 17.7981V17.4868C5.49847 16.7087 5.82701 15.9772 6.39023 15.4325C7.0473 14.7944 7.43845 13.9073 7.43845 12.9268C7.43845 11.9463 7.03166 11.0592 6.39023 10.4211C5.82701 9.87636 5.49847 9.14489 5.49847 8.36673V8.08659C5.49847 7.30843 5.82701 6.57693 6.37458 6.03221C6.39023 6.01668 6.39023 6.01668 6.40587 6.00111C6.42151 5.98555 6.42151 5.98555 6.43716 5.96998C6.98473 5.42526 7.72002 5.09843 8.50227 5.09843H8.78388C9.56613 5.09843 10.3014 5.42526 10.849 5.98555C11.4904 6.63919 12.3822 7.02829 13.3678 7.02829C14.3534 7.02829 15.2452 6.62362 15.8866 5.98555C16.4342 5.42526 17.1695 5.09843 17.9517 5.09843H18.2021C18.9843 5.09843 19.7196 5.42526 20.2672 5.98555C20.9086 6.63919 21.8004 7.02829 22.786 7.02829C24.8198 7.04385 26.4469 5.33187 26.3061 3.26195Z" fill="#757575"/>
</g>
<defs>
<clipPath id="clip0_1501_10423">
<rect width="138.273" height="26" fill="white" transform="translate(0.363281)"/>
</clipPath>
</defs>
</svg>
