<svg width="57" height="57" viewBox="0 0 57 57" fill="none" xmlns="http://www.w3.org/2000/svg">
<rect x="0.970703" y="0.267822" width="56" height="56" rx="8" fill="#55B86E"/>
<path d="M27.9407 39.5102C27.8866 39.7266 27.7618 39.9186 27.5861 40.0559C27.4103 40.1931 27.1937 40.2677 26.9707 40.2677C26.8865 40.2681 26.8025 40.258 26.7207 40.2377L22.7207 39.2377C22.6094 39.2097 22.5036 39.1628 22.4082 39.099L19.4082 37.099C19.1876 36.9518 19.0345 36.723 18.9826 36.4629C18.9306 36.2028 18.9841 35.9327 19.1313 35.7121C19.2785 35.4915 19.5074 35.3383 19.7674 35.2864C20.0275 35.2345 20.2976 35.288 20.5182 35.4352L23.3732 37.339L27.2057 38.2977C27.3338 38.3288 27.4544 38.3848 27.5607 38.4626C27.6671 38.5404 27.757 38.6385 27.8253 38.7512C27.8936 38.8639 27.9389 38.9889 27.9587 39.1192C27.9786 39.2494 27.9724 39.3823 27.9407 39.5102ZM44.527 27.4527C44.4449 27.7019 44.3143 27.9324 44.1427 28.1309C43.971 28.3294 43.7618 28.4918 43.527 28.609L40.567 30.089L33.682 36.9752C33.5598 37.0973 33.408 37.1856 33.2416 37.2316C33.0751 37.2776 32.8995 37.2797 32.732 37.2377L24.732 35.2377C24.6103 35.2072 24.4954 35.1542 24.3932 35.0815L17.4532 30.1265L14.4182 28.609C13.9439 28.3718 13.5831 27.9561 13.4153 27.453C13.2475 26.95 13.2863 26.4009 13.5232 25.9265L16.6295 19.7152C16.8666 19.2409 17.2824 18.8801 17.7854 18.7123C18.2884 18.5445 18.8375 18.5833 19.312 18.8202L22.0695 20.1952L28.6945 18.3027C28.8742 18.2513 29.0647 18.2513 29.2445 18.3027L35.8695 20.1952L38.627 18.8202C39.1014 18.5833 39.6505 18.5445 40.1535 18.7123C40.6566 18.8801 41.0724 19.2409 41.3095 19.7152L44.4157 25.9265C44.5342 26.1609 44.605 26.4165 44.6241 26.6785C44.6432 26.9404 44.6102 27.2036 44.527 27.4527ZM38.7545 29.0702L35.3532 22.2677H31.3757L25.9707 27.5177C27.5532 28.529 30.0345 28.8077 32.2607 26.564C32.4346 26.3887 32.6671 26.284 32.9136 26.2699C33.1601 26.2558 33.403 26.3334 33.5957 26.4877L37.897 29.934L38.7545 29.0702ZM15.312 26.8202L17.5232 27.9265L20.6295 21.7152L18.4182 20.609L15.312 26.8202ZM36.4707 31.3502L33.007 28.5765C30.5645 30.5765 27.4632 30.8402 24.8932 29.2015C24.6404 29.0407 24.427 28.8251 24.2687 28.5707C24.1103 28.3163 24.0112 28.0297 23.9786 27.7318C23.9459 27.434 23.9806 27.1326 24.0801 26.85C24.1796 26.5674 24.3412 26.3107 24.5532 26.099C24.5562 26.0953 24.5596 26.092 24.5632 26.089L30.1707 20.6502L28.9707 20.3077L22.6682 22.109L19.247 28.9502L25.397 33.344L32.6645 35.1602L36.4707 31.3502ZM42.6257 26.8202L39.5232 20.609L37.312 21.7152L40.4182 27.9265L42.6257 26.8202Z" fill="#181818"/>
</svg>
