<svg width="57" height="57" viewBox="0 0 57 57" fill="none" xmlns="http://www.w3.org/2000/svg">
<rect x="0.970703" y="0.267822" width="56" height="56" rx="8" fill="#EF883B"/>
<path d="M35 41.0003C35 41.2655 34.8947 41.5198 34.7071 41.7074C34.5196 41.8949 34.2653 42.0003 34 42.0003H24C23.7348 42.0003 23.4805 41.8949 23.2929 41.7074C23.1054 41.5198 23 41.2655 23 41.0003C23 40.735 23.1054 40.4807 23.2929 40.2932C23.4805 40.1056 23.7348 40.0003 24 40.0003H34C34.2653 40.0003 34.5196 40.1056 34.7071 40.2932C34.8947 40.4807 35 40.735 35 41.0003ZM40 25.0003C40.0044 26.6673 39.6278 28.3133 38.899 29.8127C38.1702 31.312 37.1086 32.625 35.795 33.6515C35.5494 33.8398 35.3501 34.0817 35.2123 34.3588C35.0745 34.6359 35.0019 34.9408 35 35.2503V36.0003C35 36.5307 34.7893 37.0394 34.4143 37.4145C34.0392 37.7895 33.5305 38.0003 33 38.0003H25C24.4696 38.0003 23.9609 37.7895 23.5858 37.4145C23.2108 37.0394 23 36.5307 23 36.0003V35.2503C22.9998 34.9445 22.9295 34.6429 22.7945 34.3685C22.6595 34.0942 22.4634 33.8545 22.2213 33.6678C20.9112 32.6475 19.8504 31.3425 19.119 29.8517C18.3877 28.3609 18.0051 26.7233 18 25.0628C17.9675 19.104 22.7825 14.144 28.735 14.0003C30.2017 13.9649 31.6607 14.2233 33.026 14.7603C34.3913 15.2972 35.6354 16.1019 36.6851 17.1269C37.7348 18.1519 38.5688 19.3765 39.1381 20.7286C39.7074 22.0808 40.0005 23.5332 40 25.0003ZM38 25.0003C38.0004 23.7998 37.7606 22.6115 37.2948 21.5051C36.8289 20.3988 36.1465 19.3968 35.2876 18.5582C34.4287 17.7195 33.4107 17.0612 32.2935 16.6219C31.1764 16.1826 29.9826 15.9713 28.7825 16.0003C23.9075 16.1153 19.9738 20.174 20 25.049C20.0045 26.4073 20.3179 27.7467 20.9165 28.9659C21.5151 30.1852 22.3831 31.2523 23.455 32.0865C23.9368 32.4611 24.3266 32.9409 24.5944 33.4893C24.8621 34.0376 25.0009 34.64 25 35.2503V36.0003H28V30.414L24.2925 26.7078C24.1049 26.5201 23.9995 26.2656 23.9995 26.0003C23.9995 25.7349 24.1049 25.4804 24.2925 25.2928C24.4802 25.1051 24.7347 24.9997 25 24.9997C25.2654 24.9997 25.5199 25.1051 25.7075 25.2928L29 28.5865L32.2925 25.2928C32.3855 25.1999 32.4958 25.1262 32.6171 25.0759C32.7385 25.0256 32.8686 24.9997 33 24.9997C33.1314 24.9997 33.2615 25.0256 33.3829 25.0759C33.5043 25.1262 33.6146 25.1999 33.7075 25.2928C33.8005 25.3857 33.8742 25.496 33.9244 25.6174C33.9747 25.7388 34.0006 25.8689 34.0006 26.0003C34.0006 26.1317 33.9747 26.2618 33.9244 26.3832C33.8742 26.5046 33.8005 26.6149 33.7075 26.7078L30 30.414V36.0003H33V35.2503C33.0012 34.6382 33.1422 34.0345 33.4123 33.4853C33.6825 32.9361 34.0746 32.4559 34.5588 32.0815C35.6339 31.2413 36.5028 30.1665 37.0992 28.9393C37.6957 27.712 38.0038 26.3648 38 25.0003Z" fill="#181818"/>
</svg>
