<svg width="57" height="57" viewBox="0 0 57 57" fill="none" xmlns="http://www.w3.org/2000/svg">
<rect x="0.970703" y="0.267822" width="56" height="56" rx="8" fill="#6E54CB"/>
<path d="M33 17.0002C33 16.2091 32.7654 15.4358 32.3259 14.778C31.8864 14.1202 31.2617 13.6075 30.5307 13.3047C29.7998 13.002 28.9956 12.9228 28.2197 13.0771C27.4437 13.2314 26.731 13.6124 26.1716 14.1718C25.6122 14.7312 25.2312 15.444 25.0769 16.2199C24.9225 16.9958 25.0017 17.8001 25.3045 18.531C25.6072 19.2619 26.1199 19.8866 26.7777 20.3261C27.4355 20.7656 28.2089 21.0002 29 21.0002C30.0609 21.0002 31.0783 20.5788 31.8284 19.8287C32.5786 19.0785 33 18.0611 33 17.0002ZM29 19.0002C28.6045 19.0002 28.2178 18.8829 27.8889 18.6632C27.56 18.4434 27.3036 18.1311 27.1523 17.7656C27.0009 17.4002 26.9613 16.998 27.0384 16.6101C27.1156 16.2221 27.3061 15.8657 27.5858 15.586C27.8655 15.3063 28.2219 15.1158 28.6098 15.0387C28.9978 14.9615 29.3999 15.0011 29.7654 15.1525C30.1308 15.3039 30.4432 15.5602 30.663 15.8891C30.8827 16.218 31 16.6047 31 17.0002C31 17.5307 30.7893 18.0394 30.4142 18.4145C30.0392 18.7895 29.5304 19.0002 29 19.0002ZM41.9375 22.964C41.8237 22.4039 41.5178 21.9012 41.0728 21.5427C40.6277 21.1842 40.0715 20.9923 39.5 21.0002H18.5C17.9301 21.0002 17.3773 21.1949 16.9332 21.5521C16.4891 21.9092 16.1804 22.4074 16.0581 22.964C15.9359 23.5207 16.0075 24.1023 16.2611 24.6127C16.5147 25.1231 16.935 25.5315 17.4525 25.7702H17.4688L23.8125 28.564L21.1875 38.529C20.9129 39.134 20.8898 39.8234 21.1234 40.4454C21.357 41.0674 21.8281 41.5712 22.4331 41.8459C23.0382 42.1205 23.7275 42.1436 24.3496 41.91C24.9716 41.6764 25.4754 41.2053 25.75 40.6002L29 34.9915L32.25 40.6002C32.5388 41.1795 33.041 41.6241 33.651 41.8407C34.261 42.0572 34.9311 42.0287 35.5205 41.7612C36.1099 41.4937 36.5726 41.0081 36.8112 40.4064C37.0498 39.8048 37.0458 39.134 36.8 38.5352L34.175 28.5702L40.5188 25.7765H40.535C41.0608 25.5457 41.489 25.1379 41.7453 24.6241C42.0015 24.1102 42.0696 23.5228 41.9375 22.964ZM39.7125 23.9515L32.5963 27.084C32.3784 27.18 32.2019 27.3506 32.0986 27.565C31.9953 27.7795 31.9718 28.0238 32.0325 28.254L34.8913 39.1252C34.9058 39.1834 34.9264 39.24 34.9525 39.294C34.9945 39.3837 35.0088 39.4839 34.9938 39.5817C34.9787 39.6796 34.935 39.7708 34.868 39.8438C34.8011 39.9168 34.714 39.9682 34.6177 39.9916C34.5215 40.015 34.4205 40.0093 34.3275 39.9752C34.2032 39.9296 34.1021 39.8366 34.0463 39.7165C34.0336 39.6895 34.0194 39.6632 34.0038 39.6377L29.865 32.5002C29.7771 32.3487 29.6509 32.2229 29.4991 32.1355C29.3473 32.048 29.1752 32.002 29 32.002C28.8248 32.002 28.6527 32.048 28.5009 32.1355C28.3491 32.2229 28.2229 32.3487 28.135 32.5002L24 39.6315C23.9844 39.6569 23.9702 39.6832 23.9575 39.7102C23.9017 39.8303 23.8006 39.9234 23.6763 39.969C23.5833 40.0031 23.4823 40.0088 23.386 39.9854C23.2898 39.962 23.2027 39.9105 23.1358 39.8376C23.0688 39.7646 23.025 39.6734 23.01 39.5755C22.995 39.4776 23.0093 39.3775 23.0513 39.2877C23.0774 39.2337 23.0979 39.1772 23.1125 39.119L25.9675 28.2502C26.0282 28.02 26.0048 27.7757 25.9014 27.5613C25.7981 27.3468 25.6216 27.1762 25.4038 27.0802L18.2875 23.9515C18.1854 23.9028 18.1028 23.8208 18.0533 23.719C18.0037 23.6173 17.9902 23.5017 18.0149 23.3912C18.0395 23.2808 18.101 23.182 18.1891 23.1109C18.2772 23.0399 18.3868 23.0009 18.5 23.0002H39.5C39.6135 23 39.7237 23.0385 39.8125 23.1092C39.9013 23.1799 39.9633 23.2787 39.9885 23.3894C40.0136 23.5001 40.0004 23.616 39.9509 23.7182C39.9015 23.8203 39.8187 23.9026 39.7163 23.9515H39.7125Z" fill="#181818"/>
</svg>
