<svg width="57" height="57" viewBox="0 0 57 57" fill="none" xmlns="http://www.w3.org/2000/svg">
<rect x="0.970703" y="0.267822" width="56" height="56" rx="8" fill="white"/>
<path d="M37.9707 22.2677H35.9707V20.2677C35.9698 19.4556 35.7217 18.663 35.2594 17.9953C34.7972 17.3276 34.1426 16.8165 33.3828 16.5298C32.623 16.2431 31.7939 16.1944 31.0058 16.3903C30.2177 16.5862 29.5079 17.0174 28.9707 17.6265C28.4588 17.0462 27.7895 16.627 27.0441 16.4194C26.2987 16.2119 25.5091 16.225 24.771 16.4572C24.0328 16.6894 23.3779 17.1307 22.8855 17.7276C22.3932 18.3245 22.0845 19.0514 21.997 19.8202C21.3894 19.4633 20.6984 19.2732 19.9938 19.2691C19.2892 19.265 18.596 19.4471 17.9844 19.797C17.3728 20.1469 16.8645 20.6522 16.5109 21.2616C16.1573 21.8711 15.9709 22.5631 15.9707 23.2677V28.2677C15.9707 31.7155 17.3403 35.0221 19.7783 37.4601C22.2163 39.8981 25.5229 41.2677 28.9707 41.2677C32.4185 41.2677 35.7251 39.8981 38.1631 37.4601C40.6011 35.0221 41.9707 31.7155 41.9707 28.2677V26.2677C41.9707 25.2069 41.5493 24.1894 40.7991 23.4393C40.049 22.6891 39.0316 22.2677 37.9707 22.2677ZM31.9707 18.2677C32.5011 18.2677 33.0098 18.4784 33.3849 18.8535C33.76 19.2286 33.9707 19.7373 33.9707 20.2677V22.2677H29.9707V20.2677C29.9707 19.7373 30.1814 19.2286 30.5565 18.8535C30.9316 18.4784 31.4403 18.2677 31.9707 18.2677ZM23.9707 20.2677C23.9707 19.7373 24.1814 19.2286 24.5565 18.8535C24.9316 18.4784 25.4403 18.2677 25.9707 18.2677C26.5011 18.2677 27.0098 18.4784 27.3849 18.8535C27.76 19.2286 27.9707 19.7373 27.9707 20.2677V25.2677C27.9707 25.7982 27.76 26.3069 27.3849 26.6819C27.0098 27.057 26.5011 27.2677 25.9707 27.2677C25.4403 27.2677 24.9316 27.057 24.5565 26.6819C24.1814 26.3069 23.9707 25.7982 23.9707 25.2677V20.2677ZM17.9707 23.2677C17.9707 22.7373 18.1814 22.2286 18.5565 21.8535C18.9316 21.4784 19.4403 21.2677 19.9707 21.2677C20.5011 21.2677 21.0098 21.4784 21.3849 21.8535C21.76 22.2286 21.9707 22.7373 21.9707 23.2677V25.2677C21.9707 25.7982 21.76 26.3069 21.3849 26.6819C21.0098 27.057 20.5011 27.2677 19.9707 27.2677C19.4403 27.2677 18.9316 27.057 18.5565 26.6819C18.1814 26.3069 17.9707 25.7982 17.9707 25.2677V23.2677ZM39.9707 28.2677C39.9707 31.1445 38.8437 33.9067 36.8313 35.9624C34.8189 38.0182 32.0812 39.2037 29.2051 39.265C26.329 39.3263 23.5434 38.2585 21.4452 36.2904C19.347 34.3223 18.1033 31.6106 17.9807 28.7365C18.78 29.1962 19.7139 29.365 20.6235 29.2141C21.5332 29.0632 22.3626 28.6021 22.9707 27.909C23.6599 28.6943 24.6295 29.178 25.6714 29.2563C26.7133 29.3346 27.7444 29.0012 28.5432 28.3277C28.9029 28.9239 29.4112 29.4166 30.0182 29.7577C29.3748 30.3198 28.8592 31.0131 28.506 31.791C28.1529 32.5689 27.9703 33.4134 27.9707 34.2677C27.9707 34.5329 28.0761 34.7873 28.2636 34.9748C28.4511 35.1624 28.7055 35.2677 28.9707 35.2677C29.2359 35.2677 29.4903 35.1624 29.6778 34.9748C29.8653 34.7873 29.9707 34.5329 29.9707 34.2677C29.9707 33.2069 30.3921 32.1894 31.1423 31.4393C31.8924 30.6891 32.9098 30.2677 33.9707 30.2677C34.2359 30.2677 34.4903 30.1624 34.6778 29.9748C34.8653 29.7873 34.9707 29.5329 34.9707 29.2677C34.9707 29.0025 34.8653 28.7481 34.6778 28.5606C34.4903 28.3731 34.2359 28.2677 33.9707 28.2677H31.9707C31.4403 28.2677 30.9316 28.057 30.5565 27.6819C30.1814 27.3069 29.9707 26.7982 29.9707 26.2677V24.2677H37.9707C38.5011 24.2677 39.0098 24.4784 39.3849 24.8535C39.76 25.2286 39.9707 25.7373 39.9707 26.2677V28.2677Z" fill="#181818"/>
</svg>
