<svg width="28" height="29" viewBox="0 0 28 29" fill="none" xmlns="http://www.w3.org/2000/svg">
<path d="M26.0083 6.70864C25.3241 5.97585 24.4965 5.39157 23.577 4.99209C22.6575 4.59262 21.6657 4.38647 20.6631 4.38647C19.6606 4.38647 18.6687 4.59262 17.7492 4.99209C16.8297 5.39157 16.0022 5.97585 15.318 6.70864C14.7911 7.26145 14.3471 7.88777 14 8.56802C13.6546 7.88811 13.2125 7.26182 12.6875 6.70864C12.0033 5.97585 11.1758 5.39157 10.2562 4.99209C9.33672 4.59262 8.34489 4.38647 7.34234 4.38647C6.3398 4.38647 5.34796 4.59262 4.42845 4.99209C3.50893 5.39157 2.68137 5.97585 1.99719 6.70864C1.90016 6.81058 1.82915 6.93441 1.79019 7.06964C1.75122 7.20487 1.74545 7.3475 1.77336 7.48543C1.80127 7.62337 1.86204 7.75254 1.95051 7.86198C2.03898 7.97142 2.15254 8.05791 2.28156 8.11411L8.42187 10.7905C6.42223 11.3252 4.71653 12.6316 3.67937 14.4229C3.15902 15.3108 2.82132 16.2938 2.68608 17.314C2.55085 18.3343 2.62082 19.3713 2.89187 20.3641C2.92934 20.5025 3.00021 20.6295 3.09827 20.734C3.19632 20.8385 3.31855 20.9174 3.45422 20.9636C3.58988 21.0098 3.73483 21.022 3.87631 20.9991C4.01779 20.9762 4.15148 20.9189 4.26562 20.8322L13.125 14.086V25.3866C13.125 25.6187 13.2172 25.8412 13.3813 26.0053C13.5454 26.1694 13.7679 26.2616 14 26.2616C14.2321 26.2616 14.4546 26.1694 14.6187 26.0053C14.7828 25.8412 14.875 25.6187 14.875 25.3866V14.086L23.7344 20.8322C23.8485 20.9192 23.9823 20.9767 24.1239 20.9997C24.2655 21.0228 24.4107 21.0106 24.5465 20.9644C24.6823 20.9181 24.8047 20.8392 24.9028 20.7345C25.0009 20.6298 25.0718 20.5026 25.1092 20.3641C25.3803 19.3713 25.4502 18.3343 25.315 17.314C25.1798 16.2938 24.8421 15.3108 24.3217 14.4229C23.2843 12.6313 21.5782 11.3249 19.5781 10.7905L25.7272 8.11411C25.8562 8.05791 25.9698 7.97142 26.0582 7.86198C26.1467 7.75254 26.2075 7.62337 26.2354 7.48543C26.2633 7.3475 26.2575 7.20487 26.2186 7.06964C26.1796 6.93441 26.1086 6.81058 26.0116 6.70864H26.0083ZM7.33687 6.13661C8.10204 6.13833 8.85871 6.29705 9.56007 6.60295C10.2614 6.90886 10.8925 7.35543 11.4144 7.91505C12.1941 8.7356 12.7336 9.75444 12.9741 10.8605L4.26562 7.06958C5.17445 6.46142 6.24334 6.13672 7.33687 6.13661ZM4.375 18.5507C4.33322 17.4122 4.61662 16.2854 5.19203 15.3022C5.59424 14.6081 6.12993 14.0005 6.7682 13.5145C7.40647 13.0284 8.13467 12.6736 8.91078 12.4705C9.43275 12.3313 9.97071 12.261 10.5109 12.2616C11.1124 12.2616 11.7106 12.3504 12.2861 12.5252L4.375 18.5507ZM22.8047 15.3022C23.3812 16.2851 23.6658 17.4119 23.625 18.5507L15.7172 12.5241C17.0394 12.1248 18.4575 12.1817 19.7435 12.6856C21.0296 13.1894 22.1089 14.111 22.808 15.3022H22.8047ZM15.0259 10.8605C15.2664 9.75444 15.8059 8.7356 16.5856 7.91505C17.1075 7.35543 17.7386 6.90886 18.4399 6.60295C19.1413 6.29705 19.898 6.13833 20.6631 6.13661C21.7567 6.13672 22.8255 6.46142 23.7344 7.06958L15.0259 10.8605Z" fill="white" fill-opacity="0.8"/>
</svg>
