<svg width="28" height="29" viewBox="0 0 28 29" fill="none" xmlns="http://www.w3.org/2000/svg">
<path d="M25.375 23.6367C25.375 23.8688 25.2828 24.0913 25.1187 24.2554C24.9546 24.4195 24.7321 24.5117 24.5 24.5117H3.5C3.26794 24.5117 3.04538 24.4195 2.88128 24.2554C2.71719 24.0913 2.625 23.8688 2.625 23.6367V6.13672C2.625 5.90465 2.71719 5.68209 2.88128 5.518C3.04538 5.35391 3.26794 5.26172 3.5 5.26172C3.73206 5.26172 3.95462 5.35391 4.11872 5.518C4.28281 5.68209 4.375 5.90465 4.375 6.13672V18.0247L9.88094 12.5177C9.9622 12.4363 10.0587 12.3718 10.1649 12.3277C10.2712 12.2837 10.385 12.261 10.5 12.261C10.615 12.261 10.7288 12.2837 10.8351 12.3277C10.9413 12.3718 11.0378 12.4363 11.1191 12.5177L14 15.3997L19.763 9.63672H17.5C17.2679 9.63672 17.0454 9.54453 16.8813 9.38044C16.7172 9.21634 16.625 8.99378 16.625 8.76172C16.625 8.52965 16.7172 8.30709 16.8813 8.143C17.0454 7.97891 17.2679 7.88672 17.5 7.88672H21.875C22.1071 7.88672 22.3296 7.97891 22.4937 8.143C22.6578 8.30709 22.75 8.52965 22.75 8.76172V13.1367C22.75 13.3688 22.6578 13.5913 22.4937 13.7554C22.3296 13.9195 22.1071 14.0117 21.875 14.0117C21.6429 14.0117 21.4204 13.9195 21.2563 13.7554C21.0922 13.5913 21 13.3688 21 13.1367V10.8737L14.6191 17.2558C14.5378 17.3371 14.4413 17.4017 14.3351 17.4457C14.2288 17.4897 14.115 17.5124 14 17.5124C13.885 17.5124 13.7712 17.4897 13.6649 17.4457C13.5587 17.4017 13.4622 17.3371 13.3809 17.2558L10.5 14.3737L4.375 20.4987V22.7617H24.5C24.7321 22.7617 24.9546 22.8539 25.1187 23.018C25.2828 23.1821 25.375 23.4047 25.375 23.6367Z" fill="white" fill-opacity="0.8"/>
</svg>
