<svg width="28" height="29" viewBox="0 0 28 29" fill="none" xmlns="http://www.w3.org/2000/svg">
<path d="M2.625 11.3867V19.2617C2.625 19.4938 2.71719 19.7163 2.88128 19.8804C3.04538 20.0445 3.26794 20.1367 3.5 20.1367H12.25C12.4821 20.1367 12.7046 20.2289 12.8687 20.393C13.0328 20.5571 13.125 20.7797 13.125 21.0117C13.125 21.2438 13.0328 21.4663 12.8687 21.6304C12.7046 21.7945 12.4821 21.8867 12.25 21.8867H10.5V23.6367H12.25C12.4821 23.6367 12.7046 23.7289 12.8687 23.893C13.0328 24.0571 13.125 24.2797 13.125 24.5117C13.125 24.7438 13.0328 24.9663 12.8687 25.1304C12.7046 25.2945 12.4821 25.3867 12.25 25.3867H7C6.76794 25.3867 6.54538 25.2945 6.38128 25.1304C6.21719 24.9663 6.125 24.7438 6.125 24.5117C6.125 24.2797 6.21719 24.0571 6.38128 23.893C6.54538 23.7289 6.76794 23.6367 7 23.6367H8.75V21.8867H3.5C2.80381 21.8867 2.13613 21.6102 1.64384 21.1179C1.15156 20.6256 0.875 19.9579 0.875 19.2617V11.3867C0.875 10.6905 1.15156 10.0228 1.64384 9.53056C2.13613 9.03828 2.80381 8.76172 3.5 8.76172H12.25C12.4821 8.76172 12.7046 8.85391 12.8687 9.018C13.0328 9.18209 13.125 9.40465 13.125 9.63672C13.125 9.86878 13.0328 10.0913 12.8687 10.2554C12.7046 10.4195 12.4821 10.5117 12.25 10.5117H3.5C3.26794 10.5117 3.04538 10.6039 2.88128 10.768C2.71719 10.9321 2.625 11.1547 2.625 11.3867ZM22.75 7.88672H19.25C19.0179 7.88672 18.7954 7.97891 18.6313 8.143C18.4672 8.30709 18.375 8.52965 18.375 8.76172C18.375 8.99378 18.4672 9.21634 18.6313 9.38044C18.7954 9.54453 19.0179 9.63672 19.25 9.63672H22.75C22.9821 9.63672 23.2046 9.54453 23.3687 9.38044C23.5328 9.21634 23.625 8.99378 23.625 8.76172C23.625 8.52965 23.5328 8.30709 23.3687 8.143C23.2046 7.97891 22.9821 7.88672 22.75 7.88672ZM22.75 11.3867H19.25C19.0179 11.3867 18.7954 11.4789 18.6313 11.643C18.4672 11.8071 18.375 12.0297 18.375 12.2617C18.375 12.4938 18.4672 12.7163 18.6313 12.8804C18.7954 13.0445 19.0179 13.1367 19.25 13.1367H22.75C22.9821 13.1367 23.2046 13.0445 23.3687 12.8804C23.5328 12.7163 23.625 12.4938 23.625 12.2617C23.625 12.0297 23.5328 11.8071 23.3687 11.643C23.2046 11.4789 22.9821 11.3867 22.75 11.3867ZM27.125 6.13672V23.6367C27.125 24.1008 26.9406 24.546 26.6124 24.8742C26.2842 25.2023 25.8391 25.3867 25.375 25.3867H16.625C16.1609 25.3867 15.7158 25.2023 15.3876 24.8742C15.0594 24.546 14.875 24.1008 14.875 23.6367V6.13672C14.875 5.67259 15.0594 5.22747 15.3876 4.89928C15.7158 4.57109 16.1609 4.38672 16.625 4.38672H25.375C25.8391 4.38672 26.2842 4.57109 26.6124 4.89928C26.9406 5.22747 27.125 5.67259 27.125 6.13672ZM25.375 23.6367V6.13672H16.625V23.6367H25.375ZM21 19.2617C20.7404 19.2617 20.4867 19.3387 20.2708 19.4829C20.055 19.6271 19.8867 19.8321 19.7874 20.0719C19.6881 20.3118 19.6621 20.5757 19.7127 20.8303C19.7634 21.0849 19.8884 21.3187 20.0719 21.5023C20.2555 21.6859 20.4893 21.8109 20.7439 21.8615C20.9985 21.9121 21.2624 21.8862 21.5023 21.7868C21.7421 21.6875 21.9471 21.5192 22.0913 21.3034C22.2355 21.0876 22.3125 20.8338 22.3125 20.5742C22.3125 20.2261 22.1742 19.8923 21.9281 19.6461C21.6819 19.4 21.3481 19.2617 21 19.2617Z" fill="white" fill-opacity="0.8"/>
</svg>
