<svg width="28" height="29" viewBox="0 0 28 29" fill="none" xmlns="http://www.w3.org/2000/svg">
<path d="M10.0625 16.1992C9.80292 16.1992 9.54916 16.1222 9.33332 15.978C9.11748 15.8338 8.94925 15.6288 8.84991 15.389C8.75057 15.1492 8.72458 14.8853 8.77522 14.6307C8.82587 14.3761 8.95087 14.1422 9.13443 13.9586C9.31798 13.7751 9.55185 13.6501 9.80645 13.5994C10.061 13.5488 10.3249 13.5748 10.5648 13.6741C10.8046 13.7735 11.0096 13.9417 11.1538 14.1575C11.298 14.3734 11.375 14.6271 11.375 14.8867C11.375 15.2348 11.2367 15.5687 10.9906 15.8148C10.7444 16.0609 10.4106 16.1992 10.0625 16.1992ZM17.9375 13.5742C17.6779 13.5742 17.4242 13.6512 17.2083 13.7954C16.9925 13.9396 16.8243 14.1446 16.7249 14.3844C16.6256 14.6243 16.5996 14.8882 16.6502 15.1428C16.7009 15.3974 16.8259 15.6312 17.0094 15.8148C17.193 15.9984 17.4268 16.1234 17.6814 16.174C17.936 16.2246 18.1999 16.1986 18.4398 16.0993C18.6796 16 18.8846 15.8317 19.0288 15.6159C19.173 15.4001 19.25 15.1463 19.25 14.8867C19.25 14.5386 19.1117 14.2048 18.8656 13.9586C18.6194 13.7125 18.2856 13.5742 17.9375 13.5742ZM16.5955 18.5212C15.8162 19.0049 14.9172 19.2612 14 19.2612C13.0828 19.2612 12.1838 19.0049 11.4045 18.5212C11.2082 18.3974 10.9706 18.3566 10.7442 18.4079C10.5177 18.4592 10.3209 18.5983 10.197 18.7947C10.0732 18.9911 10.0324 19.2286 10.0837 19.4551C10.135 19.6815 10.2741 19.8783 10.4705 20.0022C11.5294 20.6623 12.7522 21.0122 14 21.0122C15.2478 21.0122 16.4706 20.6623 17.5295 20.0022C17.7259 19.8783 17.8651 19.6815 17.9163 19.4551C17.9676 19.2286 17.9268 18.9911 17.803 18.7947C17.6791 18.5983 17.4823 18.4592 17.2559 18.4079C17.0294 18.3566 16.7919 18.3974 16.5955 18.5212ZM25.375 14.8867C25.375 17.1365 24.7079 19.3357 23.458 21.2063C22.2081 23.0769 20.4315 24.5349 18.353 25.3958C16.2745 26.2568 13.9874 26.4821 11.7809 26.0432C9.57432 25.6042 7.54749 24.5209 5.95667 22.9301C4.36584 21.3392 3.28248 19.3124 2.84357 17.1059C2.40467 14.8993 2.62993 12.6122 3.49088 10.5337C4.35182 8.45518 5.80978 6.67865 7.68039 5.42875C9.551 4.17885 11.7502 3.51172 14 3.51172C17.0159 3.5149 19.9073 4.71436 22.0398 6.8469C24.1724 8.97943 25.3718 11.8709 25.375 14.8867ZM23.625 14.8867C23.622 12.409 22.6647 10.0276 20.952 8.23713C19.2393 6.44664 16.9028 5.38461 14.4277 5.27156C13.16 7.05328 13.125 8.74859 13.125 8.76172C13.125 8.99378 13.2172 9.21634 13.3813 9.38044C13.5454 9.54453 13.7679 9.63672 14 9.63672C14.2321 9.63672 14.4546 9.54453 14.6187 9.38044C14.7828 9.21634 14.875 8.99378 14.875 8.76172C14.875 8.52965 14.9672 8.30709 15.1313 8.143C15.2954 7.97891 15.5179 7.88672 15.75 7.88672C15.9821 7.88672 16.2046 7.97891 16.3687 8.143C16.5328 8.30709 16.625 8.52965 16.625 8.76172C16.625 9.45791 16.3484 10.1256 15.8562 10.6179C15.3639 11.1102 14.6962 11.3867 14 11.3867C13.3038 11.3867 12.6361 11.1102 12.1438 10.6179C11.6516 10.1256 11.375 9.45791 11.375 8.76172C11.375 8.68187 11.3892 7.19766 12.3003 5.41156C10.4982 5.73488 8.8257 6.56549 7.47904 7.80591C6.13239 9.04634 5.16747 10.6451 4.6975 12.4147C4.22753 14.1842 4.27202 16.0511 4.82574 17.7962C5.37946 19.5414 6.41945 21.0924 7.82366 22.2673C9.22787 23.4421 10.938 24.1921 12.7535 24.4292C14.569 24.6664 16.4144 24.3807 18.0733 23.6059C19.7321 22.8311 21.1356 21.5992 22.1189 20.0548C23.1023 18.5104 23.6247 16.7176 23.625 14.8867Z" fill="white" fill-opacity="0.8"/>
</svg>
