<svg width="28" height="29" viewBox="0 0 28 29" fill="none" xmlns="http://www.w3.org/2000/svg">
<path d="M14 3.51172C11.7502 3.51172 9.551 4.17885 7.68039 5.42875C5.80978 6.67865 4.35182 8.45518 3.49088 10.5337C2.62993 12.6122 2.40467 14.8993 2.84357 17.1059C3.28248 19.3124 4.36584 21.3392 5.95667 22.9301C7.54749 24.5209 9.57432 25.6042 11.7809 26.0431C13.9874 26.4821 16.2745 26.2568 18.353 25.3958C20.4315 24.5349 22.2081 23.0769 23.458 21.2063C24.7079 19.3357 25.375 17.1365 25.375 14.8867C25.3718 11.8709 24.1724 8.97943 22.0398 6.8469C19.9073 4.71436 17.0159 3.5149 14 3.51172ZM14 24.5117C12.0964 24.5117 10.2355 23.9472 8.65264 22.8896C7.06982 21.832 5.83616 20.3288 5.10766 18.57C4.37917 16.8113 4.18856 14.876 4.55995 13.009C4.93133 11.1419 5.84802 9.4269 7.1941 8.08082C8.54018 6.73474 10.2552 5.81804 12.1223 5.44666C13.9893 5.07528 15.9246 5.26588 17.6833 5.99438C19.4421 6.72287 20.9453 7.95653 22.0029 9.53936C23.0605 11.1222 23.625 12.9831 23.625 14.8867C23.6221 17.4385 22.6071 19.885 20.8027 21.6894C18.9983 23.4938 16.5518 24.5088 14 24.5117ZM21 14.8867C21 15.1188 20.9078 15.3413 20.7437 15.5054C20.5796 15.6695 20.3571 15.7617 20.125 15.7617H14C13.7679 15.7617 13.5454 15.6695 13.3813 15.5054C13.2172 15.3413 13.125 15.1188 13.125 14.8867V8.76172C13.125 8.52965 13.2172 8.30709 13.3813 8.143C13.5454 7.97891 13.7679 7.88672 14 7.88672C14.2321 7.88672 14.4546 7.97891 14.6187 8.143C14.7828 8.30709 14.875 8.52965 14.875 8.76172V14.0117H20.125C20.3571 14.0117 20.5796 14.1039 20.7437 14.268C20.9078 14.4321 21 14.6547 21 14.8867Z" fill="white" fill-opacity="0.8"/>
</svg>
