<svg width="28" height="29" viewBox="0 0 28 29" fill="none" xmlns="http://www.w3.org/2000/svg">
<path d="M24.0844 11.8243L22.1157 8.41398C21.8575 7.96625 21.4903 7.59113 21.0481 7.32357C20.6059 7.05601 20.1032 6.9047 19.5868 6.88374C19.0704 6.86277 18.5571 6.97284 18.0947 7.20369C17.6323 7.43453 17.2358 7.77865 16.9422 8.20398L15.2644 5.2957C14.999 4.83609 14.6187 4.45335 14.1608 4.18499C13.7029 3.91664 13.1831 3.7719 12.6525 3.76495C12.1218 3.758 11.5984 3.88909 11.1336 4.14536C10.6688 4.40163 10.2787 4.77429 10.0013 5.22679C9.45963 4.73912 8.76178 4.46062 8.03317 4.44135C7.30457 4.42209 6.59298 4.66331 6.02628 5.12167C5.45959 5.58003 5.07495 6.22548 4.94149 6.94202C4.80803 7.65856 4.9345 8.3992 5.29818 9.03085L5.66349 9.66413C5.14827 9.70554 4.65191 9.87667 4.22065 10.1616C3.78939 10.4465 3.43727 10.836 3.19707 11.2936C2.95687 11.7513 2.83643 12.2624 2.84695 12.7791C2.85747 13.2959 2.99862 13.8016 3.25724 14.2491L7.41349 21.4482C8.04288 22.5448 8.88342 23.5057 9.88649 24.2754C10.8896 25.0452 12.0353 25.6084 13.2574 25.9326C14.0751 26.151 14.9179 26.2613 15.7643 26.2607C17.4524 26.2579 19.11 25.8112 20.5709 24.9654C22.0318 24.1196 23.2446 22.9044 24.0875 21.4418C24.9304 19.9793 25.3738 18.3207 25.3733 16.6327C25.3728 14.9446 24.9283 13.2863 24.0844 11.8243ZM23.3549 18.6744C22.9518 20.1789 22.1117 21.5301 20.9407 22.5571C19.7698 23.5841 18.3205 24.2408 16.7763 24.4441C15.2321 24.6475 13.6623 24.3884 12.2654 23.6996C10.8684 23.0107 9.70715 21.9231 8.92833 20.5743L4.77209 13.3752C4.68591 13.2259 4.62998 13.0611 4.60749 12.8902C4.58501 12.7193 4.59641 12.5456 4.64105 12.3791C4.7312 12.0428 4.95125 11.7561 5.25279 11.582C5.55433 11.408 5.91266 11.3608 6.24895 11.451C6.41546 11.4956 6.57155 11.5726 6.70831 11.6776C6.84507 11.7826 6.95981 11.9134 7.04599 12.0627L9.45224 16.2299C9.508 16.3326 9.58376 16.4231 9.67505 16.496C9.76634 16.5689 9.87132 16.6228 9.98378 16.6545C10.0962 16.6862 10.2139 16.6951 10.3299 16.6806C10.4458 16.6661 10.5577 16.6285 10.6588 16.5701C10.76 16.5116 10.8485 16.4335 10.919 16.3403C10.9895 16.2471 11.0406 16.1408 11.0693 16.0275C11.0981 15.9143 11.1038 15.7964 11.0863 15.6809C11.0687 15.5654 11.0282 15.4545 10.9671 15.3549L6.81084 8.15695C6.68105 7.93212 6.62086 7.67386 6.63786 7.41483C6.65486 7.15579 6.74829 6.90761 6.90634 6.70168C7.06439 6.49574 7.27996 6.3413 7.52579 6.25788C7.77161 6.17447 8.03666 6.16582 8.2874 6.23304C8.45419 6.27703 8.61057 6.35374 8.74745 6.4587C8.88433 6.56366 8.99898 6.69479 9.08474 6.84445L12.8035 13.2855C12.9227 13.48 13.1132 13.6201 13.3342 13.6762C13.5553 13.7323 13.7895 13.6999 13.987 13.5858C14.1845 13.4717 14.3297 13.285 14.3916 13.0655C14.4534 12.846 14.4272 12.611 14.3183 12.4105L11.4746 7.48867C11.308 7.18772 11.2663 6.83343 11.3583 6.50202C11.4503 6.17061 11.6687 5.88855 11.9666 5.71655C12.2645 5.54455 12.6179 5.49634 12.951 5.58229C13.284 5.66825 13.57 5.8815 13.7474 6.17617L17.5001 12.6752C16.5447 13.4667 15.9 14.5705 15.6799 15.7914C15.4597 17.0123 15.6783 18.2718 16.2969 19.3471C16.413 19.5481 16.6041 19.6948 16.8283 19.7549C17.0525 19.815 17.2914 19.7836 17.4924 19.6676C17.6934 19.5515 17.8401 19.3604 17.9002 19.1362C17.9603 18.912 17.9289 18.6731 17.8129 18.4721C17.3488 17.6683 17.223 16.713 17.4632 15.8165C17.7034 14.9199 18.2899 14.1555 19.0936 13.6913C19.1932 13.6339 19.2805 13.5574 19.3505 13.4662C19.4204 13.3751 19.4718 13.271 19.5015 13.16C19.5313 13.049 19.5389 12.9332 19.5239 12.8192C19.5089 12.7053 19.4716 12.5954 19.4141 12.4959L18.3204 10.6015C18.1538 10.3005 18.1121 9.94625 18.2041 9.61483C18.2961 9.28342 18.5145 9.00137 18.8124 8.82936C19.1102 8.65736 19.4637 8.60915 19.7967 8.6951C20.1298 8.78106 20.4158 8.99431 20.5932 9.28898L22.5619 12.6993C23.0827 13.5931 23.421 14.5814 23.5571 15.6069C23.6932 16.6323 23.6245 17.6746 23.3549 18.6734V18.6744ZM20.1546 4.16038C20.1843 4.04934 20.2356 3.94523 20.3055 3.85402C20.3755 3.7628 20.4627 3.68626 20.5623 3.62877C20.6618 3.57128 20.7717 3.53397 20.8857 3.51896C20.9996 3.50396 21.1154 3.51155 21.2265 3.54132C22.9666 4.00835 24.3983 5.0846 25.258 6.57429C25.3741 6.77532 25.4055 7.0142 25.3454 7.2384C25.2853 7.46259 25.1386 7.65373 24.9376 7.76976C24.7365 7.88579 24.4976 7.91721 24.2734 7.85711C24.0493 7.79702 23.8581 7.65032 23.7421 7.44929C23.1165 6.36429 22.0621 5.57679 20.7736 5.23226C20.6626 5.20256 20.5585 5.15127 20.4673 5.08132C20.3761 5.01137 20.2995 4.92413 20.242 4.82459C20.1845 4.72505 20.1472 4.61515 20.1322 4.50119C20.1172 4.38722 20.1248 4.27141 20.1546 4.16038ZM8.84959 26.8087C8.77844 26.899 8.6902 26.9744 8.5899 27.0306C8.4896 27.0868 8.37921 27.1227 8.26504 27.1362C8.15087 27.1497 8.03516 27.1405 7.92451 27.1093C7.81387 27.0781 7.71046 27.0254 7.62021 26.9541C6.41708 26.0037 5.42068 24.8126 4.49208 23.2048C4.37605 23.0037 4.34463 22.7648 4.40473 22.5407C4.46483 22.3165 4.61153 22.1253 4.81255 22.0093C5.01358 21.8933 5.25247 21.8618 5.47666 21.9219C5.70085 21.982 5.89199 22.1287 6.00802 22.3298C6.82177 23.7385 7.67818 24.771 8.70412 25.5804C8.8862 25.724 9.00379 25.9341 9.03107 26.1644C9.05835 26.3947 8.99307 26.6265 8.84959 26.8087Z" fill="white" fill-opacity="0.8"/>
</svg>
