<svg width="15" height="16" viewBox="0 0 15 16" fill="none" xmlns="http://www.w3.org/2000/svg">
<path d="M14.0384 15.848H11.1013H10.9418V15.6885V9.32363C10.9418 8.98148 10.8958 8.69487 10.7525 8.5033C10.6149 8.31946 10.3734 8.21212 9.97362 8.21212C8.67952 8.21212 8.35591 9.19306 8.3142 9.34203V15.6885V15.848L8.15472 15.848H5.21807H5.05859V15.6885V5.38604V5.22656H5.21807H8.15472H8.3142V5.38604V6.06744C8.53202 5.92595 8.8215 5.76185 9.17442 5.61691C9.69056 5.40495 10.3417 5.23385 11.1013 5.23385C11.7071 5.23385 12.7041 5.45003 13.4056 6.40933C13.8666 7.03969 14.1979 7.99007 14.1979 9.40963V15.6885V15.848H14.0384L14.0384 15.848Z" fill="white"/>
<path d="M1.82407 3.94059C1.39937 3.94059 1.01426 3.76761 0.735378 3.48724C0.457268 3.20767 0.285156 2.82166 0.285156 2.39439C0.285156 1.9696 0.457551 1.58491 0.736038 1.30642C1.01462 1.02784 1.39943 0.855469 1.82407 0.855469L1.82532 0.856093C2.25016 0.860166 2.63444 1.03404 2.91216 1.31177C3.19066 1.59028 3.36297 1.97318 3.36297 2.39439C3.36297 2.82172 3.19094 3.20778 2.91283 3.48737C2.63402 3.76766 2.24897 3.94059 1.82408 3.94059L1.82407 3.94059Z" fill="white"/>
<path d="M3.30524 15.848H0.358705H0.199219V15.6885V5.38604V5.22656H0.358705H3.30524H3.46472V5.38604V15.6885V15.848H3.30524Z" fill="white"/>
</svg>
