<svg width="147" height="66" viewBox="0 0 147 66" fill="none" xmlns="http://www.w3.org/2000/svg">
<path d="M113.731 0.650574C131.716 0.650574 146.295 15.2297 146.295 33.214C146.295 51.1982 131.716 65.7773 113.731 65.7773C95.7471 65.7773 81.168 51.1982 81.168 33.214C81.168 15.2297 95.7471 0.650574 113.731 0.650574Z" fill="white"/>
<path d="M127.182 16.0972L120.172 27.1011H130.238V31.2581H97.2266V27.1011H107.293L100.283 16.0972H105.5L113.732 29.0166L121.965 16.0972H127.182ZM130.238 35.2929V39.4499H120.376L127.304 50.3315H122.046L113.732 37.2084L105.418 50.3315H100.161L107.089 39.4499H97.2266V35.2521L130.238 35.2929Z" fill="#121212"/>
<circle cx="32.7659" cy="33.2137" r="32.5647" fill="white"/>
<path d="M42.4301 34.6618C42.118 33.9441 41.6375 33.3139 40.6765 32.7834C40.1798 32.5026 39.6463 32.2925 39.0914 32.1594C39.4647 31.9859 39.8081 31.7542 40.1086 31.4729C40.5504 31.078 40.8853 30.5778 41.0821 30.0189C41.2633 29.4509 41.3374 28.8541 41.3005 28.2591C41.2319 27.2107 41.026 26.1935 40.4768 25.4633C39.9276 24.7332 39.1538 24.1716 38.1304 23.7784C37.3441 23.4789 36.5391 23.2917 35.291 23.223V19.2354H32.7948V23.2293H30.7978V19.2354H28.2392V23.2293H22.8057V26.2247H24.5449C25.0878 26.2247 25.456 26.2746 25.6432 26.3682C25.8174 26.4427 25.9606 26.575 26.0488 26.7426C26.13 26.8986 26.1674 27.2668 26.1674 27.8347V38.6432C26.1674 39.2049 26.13 39.5668 26.0488 39.7291C25.9677 39.8913 25.924 40.0348 25.7306 40.1222C25.5371 40.2096 25.5309 40.2033 24.9942 40.2033H23.3467L22.8057 43.1988H28.2349V47.1927H30.7935V43.1988H32.7904V47.1927H35.2866V43.1738C36.9091 43.0927 38.0636 42.8805 38.9934 42.531C40.1979 42.0817 41.1214 41.4265 41.7829 40.5653C42.4444 39.7041 42.6566 38.3874 42.7146 37.3702C42.7564 36.4653 42.7128 35.2983 42.4301 34.6618ZM30.7935 26.5991H32.7904V31.2171H30.7935V26.5991ZM30.7935 39.8289V34.2125H32.7904V39.8289H30.7935ZM35.2866 26.8425C35.661 26.9985 35.9044 27.3105 36.1478 27.635C36.4161 27.9907 36.5534 28.465 36.5534 28.9705C36.5534 29.4572 36.3724 29.8754 36.0854 30.2498C35.8482 30.5556 35.661 30.7677 35.2866 30.9425V26.8425ZM37.0839 38.4934C36.5971 38.924 36.3163 39.1237 35.7047 39.3546C35.5679 39.4028 35.4283 39.4424 35.2866 39.4732V34.3061C35.5307 34.3422 35.7683 34.4137 35.9918 34.5183C36.4785 34.7242 36.9403 34.9489 37.2274 35.342C37.5457 35.7936 37.7197 36.331 37.7266 36.8834C37.7248 37.5636 37.55 38.0816 37.082 38.4934H37.0839Z" fill="black"/>
</svg>
