<svg width="77" height="85" viewBox="0 0 77 85" fill="none" xmlns="http://www.w3.org/2000/svg">
<path fill-rule="evenodd" clip-rule="evenodd" d="M32.0751 2.52504C33.9124 1.45869 36.3489 0.92627 38.7731 0.92627C41.2084 0.92627 43.6434 1.45869 45.4808 2.52521L70.1471 16.7637C73.8325 18.8944 76.8562 24.1194 76.8562 28.3777V56.8599C76.8562 61.1193 73.8325 66.3458 70.1471 68.4757L45.4809 82.7173C43.6434 83.7805 41.2084 84.3114 38.7731 84.3114C36.3487 84.3114 33.9124 83.7805 32.0751 82.7173L7.40896 68.4757C3.71799 66.3458 0.701172 61.1193 0.701172 56.8599V28.3779C0.701172 24.1196 3.71799 18.8947 7.40879 16.7639L32.0751 2.52504Z" fill="url(#paint0_linear_74_45208)"/>
<path d="M47.124 50.9648L56.2283 60.0691" stroke="#F5F5F5" stroke-width="3.5" stroke-linecap="round" stroke-linejoin="round"/>
<path d="M35.7432 53.9995C43.7044 53.9995 50.1582 47.5457 50.1582 39.5845C50.1582 31.6233 43.7044 25.1694 35.7432 25.1694C27.782 25.1694 21.3281 31.6233 21.3281 39.5845C21.3281 47.5457 27.782 53.9995 35.7432 53.9995Z" stroke="#F5F5F5" stroke-width="4.5" stroke-linecap="round" stroke-linejoin="round"/>
<defs>
<linearGradient id="paint0_linear_74_45208" x1="0.701497" y1="42.6199" x2="76.8564" y2="42.6199" gradientUnits="userSpaceOnUse">
<stop stop-color="#704688"/>
<stop offset="1" stop-color="#5546FF"/>
</linearGradient>
</defs>
</svg>
