<svg width="77" height="85" viewBox="0 0 77 85" fill="none" xmlns="http://www.w3.org/2000/svg">
<path fill-rule="evenodd" clip-rule="evenodd" d="M31.8954 2.52504C33.7327 1.45869 36.1692 0.92627 38.5934 0.92627C41.0288 0.92627 43.4637 1.45869 45.3011 2.52521L69.9674 16.7637C73.6528 18.8944 76.6765 24.1194 76.6765 28.3777V56.8599C76.6765 61.1193 73.6528 66.3458 69.9674 68.4757L45.3012 82.7173C43.4637 83.7805 41.0288 84.3114 38.5934 84.3114C36.1691 84.3114 33.7327 83.7805 31.8954 82.7173L7.22927 68.4757C3.53831 66.3458 0.521484 61.1193 0.521484 56.8599V28.3779C0.521484 24.1196 3.53831 18.8947 7.2291 16.7639L31.8954 2.52504Z" fill="url(#paint0_linear_74_45222)"/>
<path d="M30.7773 65.7127C29.6498 65.706 28.5551 65.333 27.6581 64.6499L22.8753 61.0917C21.7716 60.2311 21.0393 58.9806 20.8287 57.597C20.6182 56.2134 20.9454 54.8017 21.7432 53.6518C22.1653 53.0285 22.4335 52.314 22.5259 51.567C22.6183 50.8199 22.5322 50.0616 22.2746 49.3543L22.136 48.9846C21.9566 48.3444 21.6288 47.7555 21.1792 47.2657C20.7296 46.7759 20.1708 46.3991 19.5482 46.1658H19.1785C17.8289 45.7119 16.7127 44.744 16.0725 43.4722C15.4323 42.2003 15.3196 40.7273 15.7589 39.3729L17.6536 33.3655C17.828 32.6695 18.1491 32.0188 18.5954 31.4569C19.0417 30.8951 19.6028 30.4351 20.2413 30.1077C20.836 29.8013 21.4865 29.6188 22.1537 29.5711C22.8209 29.5235 23.4909 29.6117 24.123 29.8304C24.8113 30.0621 25.5457 30.1221 26.2624 30.0053C26.9792 29.8886 27.6566 29.5985 28.2357 29.1604L28.5361 28.9293C29.0603 28.511 29.484 27.9804 29.7759 27.3766C30.0678 26.7728 30.2205 26.1111 30.2228 25.4405V24.8859C30.2165 23.4722 30.7691 22.1133 31.76 21.105C32.751 20.0967 34.1002 19.5207 35.5138 19.5024H41.4056C42.0934 19.5043 42.7741 19.642 43.4085 19.9077C44.0429 20.1733 44.6186 20.5617 45.1025 21.0505C46.1198 22.0851 46.6848 23.4812 46.6736 24.9321V25.5791C46.6619 26.2162 46.8001 26.8472 47.077 27.4211C47.3539 27.995 47.7618 28.4958 48.2679 28.8831L48.522 29.068C49.0406 29.4568 49.6455 29.7145 50.2852 29.8191C50.9248 29.9237 51.5803 29.8721 52.1957 29.6687L52.9813 29.4145C53.6469 29.1939 54.3501 29.1096 55.0489 29.1666C55.7478 29.2236 56.428 29.4208 57.0491 29.7464C57.6701 30.072 58.2191 30.5194 58.6635 31.0618C59.1079 31.6041 59.4385 32.2305 59.6356 32.9034L61.4609 38.7259C61.8832 40.0715 61.7678 41.5285 61.1388 42.7908C60.5098 44.0531 59.4162 45.0226 58.0875 45.4957L57.6254 45.6574C56.9458 45.88 56.3312 46.2661 55.8356 46.7818C55.3401 47.2974 54.9788 47.9269 54.7835 48.6149C54.5996 49.2545 54.556 49.9262 54.6557 50.5842C54.7554 51.2422 54.996 51.8709 55.3611 52.4272L55.9619 53.3052C56.7585 54.4615 57.0827 55.8788 56.8679 57.2664C56.6531 58.654 55.9156 59.9069 54.8066 60.7682L50.1625 64.3495C49.6014 64.7786 48.9584 65.0883 48.2732 65.2595C47.5879 65.4308 46.8748 65.4599 46.1779 65.3452C45.4809 65.2305 44.8148 64.9743 44.2206 64.5925C43.6264 64.2106 43.1166 63.7112 42.7226 63.1249L42.4454 62.7321C42.0669 62.1634 41.5506 61.6999 40.9446 61.3847C40.3385 61.0696 39.6625 60.9131 38.9796 60.9299C38.328 60.9468 37.6894 61.1166 37.1155 61.4256C36.5416 61.7347 36.0483 62.1743 35.6756 62.709L35.1441 63.4715C34.7501 64.0619 34.2393 64.5653 33.6432 64.9508C33.0471 65.3362 32.3785 65.5955 31.6784 65.7127C31.3787 65.742 31.0769 65.742 30.7773 65.7127ZM21.05 41.7296C22.3547 42.1948 23.532 42.9599 24.4871 43.9631C25.4422 44.9664 26.1485 46.1798 26.549 47.5059V47.7831C27.048 49.1616 27.2118 50.6391 27.027 52.0934C26.8422 53.5477 26.314 54.9372 25.4862 56.1472C25.3401 56.3086 25.2592 56.5186 25.2592 56.7364C25.2592 56.9541 25.3401 57.1641 25.4862 57.3255L30.4538 61.0917C30.5186 61.1426 30.5936 61.179 30.6736 61.1986C30.7537 61.2181 30.837 61.2203 30.918 61.205C30.999 61.1897 31.0757 61.1572 31.1431 61.1097C31.2105 61.0623 31.267 61.001 31.3087 60.9299L31.8401 60.1675C32.6416 59.0094 33.712 58.0629 34.9594 57.4091C36.2069 56.7554 37.5943 56.4139 39.0027 56.4139C40.4111 56.4139 41.7985 56.7554 43.046 57.4091C44.2934 58.0629 45.3638 59.0094 46.1653 60.1675L46.4426 60.5834C46.5419 60.7243 46.6902 60.8231 46.8584 60.8606C46.9356 60.872 47.0143 60.8676 47.0898 60.8478C47.1652 60.8279 47.2359 60.793 47.2974 60.7451L52.0571 57.1407C52.2237 57.0084 52.3333 56.8174 52.3634 56.6068C52.3935 56.3962 52.3418 56.1821 52.2188 56.0085L51.6181 55.1305C50.8353 53.9892 50.3189 52.6865 50.107 51.3189C49.895 49.9512 49.993 48.5534 50.3935 47.2286C50.7996 45.8362 51.5341 44.5617 52.5353 43.5123C53.5364 42.4629 54.775 41.6692 56.1467 41.1982L56.6088 41.0364C56.8014 40.9593 56.9556 40.8091 57.0379 40.6186C57.1201 40.4281 57.1237 40.2129 57.0478 40.0198L55.2456 34.2666C55.2023 34.166 55.1391 34.0751 55.0596 33.9997C54.9802 33.9242 54.8862 33.8657 54.7835 33.8276C54.7155 33.7931 54.6403 33.7751 54.564 33.7751C54.4877 33.7751 54.4125 33.7931 54.3445 33.8276L53.5589 34.0818C52.23 34.5204 50.8145 34.6296 49.4341 34.4002C48.0536 34.1708 46.7495 33.6096 45.6339 32.7648L45.5415 32.5568C44.4709 31.7461 43.6029 30.6983 43.0056 29.4956C42.4083 28.2929 42.0979 26.9681 42.0988 25.6253V24.909C42.103 24.6863 42.0201 24.4708 41.8677 24.3083C41.7348 24.1882 41.5617 24.1222 41.3825 24.1235H35.5138C35.4197 24.1293 35.3277 24.1538 35.243 24.1953C35.1583 24.2368 35.0827 24.2947 35.0204 24.3655C34.9582 24.4364 34.9105 24.5188 34.8802 24.6081C34.8499 24.6974 34.8375 24.7918 34.8438 24.8859V25.4636C34.8439 26.843 34.5273 28.2041 33.9185 29.4419C33.3096 30.6797 32.4246 31.7612 31.3318 32.603L31.0314 32.8341C29.8524 33.7317 28.4708 34.3256 27.0081 34.5633C25.5455 34.8011 24.0469 34.6754 22.6443 34.1973C22.5393 34.1621 22.4257 34.1621 22.3208 34.1973C22.1904 34.2765 22.0922 34.3993 22.0435 34.5439L20.1258 40.5743C20.059 40.7797 20.0746 41.003 20.1695 41.1971C20.2644 41.3911 20.431 41.5407 20.6341 41.614L21.05 41.7296Z" fill="#F5F5F5"/>
<path d="M38.6112 50.6936C37.0118 50.6936 35.4483 50.2193 34.1184 49.3307C32.7886 48.4422 31.7521 47.1792 31.14 45.7015C30.5279 44.2238 30.3678 42.5978 30.6798 41.0292C30.9918 39.4605 31.762 38.0196 32.893 36.8886C34.0239 35.7576 35.4649 34.9874 37.0336 34.6754C38.6022 34.3634 40.2282 34.5235 41.7059 35.1356C43.1836 35.7477 44.4465 36.7842 45.3351 38.114C46.2237 39.4439 46.698 41.0074 46.698 42.6068C46.698 44.7516 45.846 46.8085 44.3294 48.325C42.8129 49.8416 40.756 50.6936 38.6112 50.6936ZM38.6112 39.141C37.9257 39.141 37.2557 39.3443 36.6857 39.7251C36.1158 40.106 35.6716 40.6472 35.4093 41.2805C35.1469 41.9138 35.0783 42.6107 35.212 43.283C35.3458 43.9553 35.6758 44.5728 36.1605 45.0575C36.6452 45.5422 37.2628 45.8723 37.9351 46.006C38.6074 46.1397 39.3042 46.0711 39.9375 45.8088C40.5708 45.5465 41.1121 45.1022 41.4929 44.5323C41.8737 43.9624 42.077 43.2923 42.077 42.6068C42.077 41.6876 41.7118 40.8061 41.0619 40.1561C40.4119 39.5062 39.5304 39.141 38.6112 39.141Z" fill="#F5F5F5"/>
<defs>
<linearGradient id="paint0_linear_74_45222" x1="0.52181" y1="42.6199" x2="76.6767" y2="42.6199" gradientUnits="userSpaceOnUse">
<stop stop-color="#704688"/>
<stop offset="1" stop-color="#5546FF"/>
</linearGradient>
</defs>
</svg>
