<svg width="77" height="85" viewBox="0 0 77 85" fill="none" xmlns="http://www.w3.org/2000/svg">
<circle cx="38.6341" cy="42.6185" r="31.0198" fill="#F5F5F5"/>
<path d="M38.6257 0.92627C36.2015 0.92627 33.765 1.45869 31.9276 2.52504L7.26133 16.7639C3.57053 18.8947 0.553711 24.1196 0.553711 28.3779V56.8599C0.553711 61.1193 3.57053 66.3458 7.26149 68.4757L31.9276 82.7173C33.765 83.7805 36.2013 84.3114 38.6257 84.3114C41.061 84.3114 43.496 83.7805 45.3335 82.7173L69.9996 68.4757C73.685 66.3458 76.7087 61.1193 76.7087 56.8599V28.3777C76.7087 24.1194 73.685 18.8944 69.9996 16.7637L45.3333 2.52521C43.496 1.45869 41.061 0.92627 38.6257 0.92627ZM55.3008 25.1975C56.0114 25.1975 56.7214 25.4668 57.2595 26.0067L60.2599 29.0036C61.3361 30.0843 61.3361 31.8512 60.2599 32.9308L33.961 59.2324C32.874 60.311 31.1135 60.311 30.0372 59.2324L18.447 47.6471C17.3707 46.5686 17.599 44.5744 18.447 43.7233L21.4487 40.7261C22.5251 39.6455 24.2966 39.6455 25.3727 40.7261L30.0372 45.3873C31.1135 46.4657 32.874 46.4657 33.961 45.3873L53.3339 26.0067C53.8565 25.4872 54.564 25.1963 55.3008 25.1975Z" fill="url(#paint0_linear_74_45218)"/>
<defs>
<linearGradient id="paint0_linear_74_45218" x1="0.554036" y1="42.6199" x2="76.7089" y2="42.6199" gradientUnits="userSpaceOnUse">
<stop stop-color="#704688"/>
<stop offset="1" stop-color="#5546FF"/>
</linearGradient>
</defs>
</svg>
