<svg width="71" height="102" viewBox="0 0 71 102" fill="none" xmlns="http://www.w3.org/2000/svg">
<path d="M56.3081 0.432846C56.927 0.791676 57.406 1.34981 57.6668 2.01605C57.9275 2.6823 57.9546 3.41729 57.7437 4.10094L46.3536 41.1107H67.3692C67.9868 41.1105 68.591 41.2911 69.1071 41.6302C69.6232 41.9694 70.0288 42.4523 70.2736 43.0193C70.5184 43.5863 70.5918 44.2126 70.4848 44.8209C70.3778 45.4291 70.095 45.9927 69.6713 46.4421L19.0769 100.199C18.5874 100.719 17.936 101.059 17.2288 101.161C16.5217 101.264 15.8005 101.125 15.1829 100.765C14.5652 100.406 14.0876 99.8479 13.8277 99.1822C13.5678 98.5166 13.5411 97.7825 13.7519 97.0997L25.1419 60.0836H4.1263C3.5087 60.0838 2.90455 59.9032 2.38842 59.564C1.87229 59.2249 1.46679 58.742 1.22196 58.175C0.977137 57.608 0.903708 56.9817 1.01074 56.3734C1.11777 55.7652 1.40058 55.2016 1.82426 54.7522L52.4186 0.995708C52.9076 0.475845 53.558 0.13667 54.2641 0.0333309C54.9703 -0.0700085 55.6906 0.0685655 56.3081 0.426521V0.432846Z" fill="#FF9D03"/>
</svg>
